<svg width="16" height="21" viewBox="0 0 16 21" fill="none" xmlns="http://www.w3.org/2000/svg">
<path d="M14.5455 8.35291C14.5455 6.61694 13.8558 4.95208 12.6283 3.72457C11.4008 2.49706 9.73596 1.80745 8 1.80745C6.26404 1.80745 4.59918 2.49706 3.37166 3.72457C2.14415 4.95208 1.45455 6.61694 1.45455 8.35291C1.45455 11.038 3.60291 14.5376 8 18.7296C12.3971 14.5376 14.5455 11.038 14.5455 8.35291ZM8 20.7165C2.66618 15.8685 0 11.7464 0 8.35291C0 6.23117 0.842855 4.19634 2.34315 2.69605C3.84344 1.19576 5.87827 0.352905 8 0.352905C10.1217 0.352905 12.1566 1.19576 13.6569 2.69605C15.1571 4.19634 16 6.23117 16 8.35291C16 11.7464 13.3338 15.8685 8 20.7165Z" fill="#000103" fill-opacity="0.7"/>
</svg>
