<svg width="20" height="18" viewBox="0 0 20 18" fill="none" xmlns="http://www.w3.org/2000/svg">
<path d="M5 6V3C5 2.46957 5.21071 1.96086 5.58579 1.58579C5.96086 1.21071 6.46957 1 7 1H17C17.5304 1 18.0391 1.21071 18.4142 1.58579C18.7893 1.96086 19 2.46957 19 3V15C19 15.5304 18.7893 16.0391 18.4142 16.4142C18.0391 16.7893 17.5304 17 17 17H11M11 17V10.828C10.9999 10.2976 10.7891 9.78898 10.414 9.414L7.414 6.414C7.03894 6.03906 6.53033 5.82843 6 5.82843C5.46967 5.82843 4.96106 6.03906 4.586 6.414L1.586 9.414C1.2109 9.78898 1.00011 10.2976 1 10.828V15C1 15.5304 1.21071 16.0391 1.58579 16.4142C1.96086 16.7893 2.46957 17 3 17H6M11 17H6M6 13V17M15.001 5H15M11.001 5H11M15.001 9H15M15.001 13H15" stroke="#979797" stroke-linecap="round" stroke-linejoin="round"/>
</svg>
